<?xml version="1.0" standalone="no"?>
<!DOCTYPE svg PUBLIC "-//W3C//DTD SVG 20010904//EN"
 "http://www.w3.org/TR/2001/REC-SVG-20010904/DTD/svg10.dtd">
<svg version="1.0" xmlns="http://www.w3.org/2000/svg"
 width="512.000000pt" height="512.000000pt" viewBox="0 0 512.000000 512.000000"
 preserveAspectRatio="xMidYMid meet">
<metadata>
Created by potrace 1.11, written by Peter Selinger 2001-2013
</metadata>
<g transform="translate(0.000000,512.000000) scale(0.100000,-0.100000)"
fill="#000000" stroke="none">
<path d="M3400 5103 c-19 -9 -48 -22 -65 -28 -101 -40 -409 -165 -435 -177
-14 -6 -30 -12 -36 -14 -6 -1 -27 -9 -45 -17 -19 -9 -117 -49 -219 -90 -102
-41 -194 -77 -205 -82 -11 -5 -22 -9 -25 -10 -3 -1 -18 -7 -35 -14 -16 -7 -50
-21 -75 -30 -146 -58 -308 -125 -330 -136 l-25 -13 1 -885 1 -885 -24 9 c-13
5 -42 17 -66 28 -73 33 -272 116 -279 116 -3 0 -10 3 -14 8 -12 11 -48 8 -69
-6 -11 -7 -36 -19 -55 -27 -19 -7 -55 -22 -80 -33 -25 -11 -85 -37 -135 -58
l-90 -38 -3 -190 -2 -191 -28 6 c-15 3 -52 12 -82 20 -30 7 -67 15 -83 18 -15
3 -35 7 -45 10 -9 3 -28 7 -42 10 -14 2 -65 14 -115 26 -49 12 -97 23 -105 25
-8 1 -31 5 -51 9 -29 6 -54 0 -145 -39 -60 -25 -118 -50 -129 -55 -11 -6 -47
-21 -80 -33 l-60 -23 -3 -337 c-1 -185 1 -337 5 -338 5 0 53 -2 108 -4 55 -2
174 -7 265 -11 219 -9 342 -9 478 1 l112 7 0 -162 0 -162 -142 7 c-79 4 -150
7 -158 7 -64 1 -504 -13 -577 -18 l-93 -6 0 -332 0 -331 196 -84 c122 -52 204
-81 217 -78 278 64 299 68 322 72 11 2 32 8 47 14 16 6 28 9 28 6 0 -2 15 1
32 6 18 5 47 12 63 15 17 2 38 7 47 10 16 5 18 -10 20 -180 2 -103 6 -185 9
-184 3 2 12 -2 20 -8 8 -7 75 -38 149 -69 74 -31 149 -63 165 -70 62 -28 69
-27 216 36 79 33 164 70 189 82 44 20 51 23 68 26 5 0 8 83 8 184 l0 182 33
-3 c18 -2 51 -10 71 -17 21 -7 40 -12 43 -9 2 2 23 -2 46 -10 23 -9 44 -15 46
-15 12 1 160 -30 195 -41 14 -4 51 -14 83 -21 63 -13 48 -17 217 59 30 13 60
25 65 27 6 1 28 10 50 20 22 11 42 20 45 20 3 1 20 8 38 14 l32 13 0 333 0
333 -92 6 c-136 8 -553 19 -623 16 -33 -2 -102 -4 -154 -4 l-95 -1 0 148 c-1
82 2 154 5 159 4 7 42 8 110 3 126 -10 221 -10 449 -1 96 4 222 9 280 11 58 2
108 4 113 4 4 1 7 151 7 335 l0 334 -62 25 c-35 14 -85 35 -113 48 -27 12 -52
23 -55 24 -3 1 -16 6 -30 12 -105 45 -135 54 -164 47 -17 -4 -38 -9 -46 -10
-8 -1 -53 -12 -100 -23 -47 -12 -98 -23 -115 -26 -16 -3 -83 -18 -148 -34 -81
-19 -120 -25 -124 -17 -10 16 -9 350 0 357 5 4 28 -3 51 -15 23 -11 48 -22 56
-24 8 -2 29 -9 45 -17 17 -7 55 -23 85 -35 30 -12 69 -27 85 -35 17 -7 77 -31
135 -55 58 -23 119 -48 137 -56 17 -8 33 -14 36 -14 3 0 16 -4 29 -9 13 -5 26
-9 31 -10 4 0 21 -8 39 -17 17 -9 104 -45 192 -80 89 -36 170 -69 181 -74 11
-5 111 -45 223 -90 217 -87 216 -87 297 -49 24 11 50 22 57 23 7 1 29 9 48 18
38 18 159 67 175 72 6 2 21 8 35 13 14 6 50 21 80 32 30 12 64 26 75 31 11 5
88 36 170 69 83 33 168 68 190 77 22 10 45 19 50 20 9 2 85 32 150 60 17 7 77
31 135 54 58 23 116 47 130 53 14 6 27 11 30 11 17 4 140 60 141 65 4 35 2
1747 -2 1759 -4 9 -24 23 -45 31 -22 8 -50 18 -64 24 -14 6 -27 11 -30 12 -3
1 -16 6 -30 12 -14 6 -79 32 -145 58 -66 27 -124 52 -130 56 -5 5 -16 9 -25 9
-10 0 -30 6 -46 14 -16 8 -92 40 -169 70 -77 31 -149 61 -160 65 -11 5 -56 23
-100 41 -44 17 -89 35 -100 40 -34 15 -349 142 -360 145 -5 1 -31 11 -57 23
-68 30 -107 34 -148 15z m-395 -1497 l0 -618 -35 5 c-19 3 -46 7 -60 11 -14 3
-38 9 -55 11 -16 3 -37 8 -45 10 -8 2 -31 6 -50 9 -50 8 -85 15 -152 31 -32 7
-58 10 -59 7 -1 -4 -4 4 -8 18 -5 14 -4 33 1 43 5 9 5 17 1 17 -10 0 -10 101
1 118 4 6 4 12 -1 12 -10 0 -10 91 1 108 4 6 4 12 -1 12 -10 0 -10 91 1 108 4
6 4 12 -1 12 -10 0 -10 91 1 108 4 6 4 12 -1 12 -10 0 -10 91 1 108 4 6 4 12
-1 12 -10 0 -10 91 1 108 4 6 4 12 -1 12 -10 0 -10 91 1 108 4 6 4 12 -1 12
-10 0 -10 91 1 108 4 6 3 12 -3 12 -23 0 2 26 27 28 15 2 115 20 222 41 107
21 199 37 205 36 6 -1 10 -224 10 -619z m1035 599 c41 -9 89 -18 105 -20 58
-7 110 -16 140 -25 17 -5 45 -11 62 -12 29 -2 58 -28 32 -28 -6 0 -7 -5 -3
-11 9 -16 11 -349 1 -349 -5 0 -5 -4 -2 -10 11 -18 14 -50 5 -50 -5 0 -7 -7
-4 -14 9 -24 10 -266 1 -266 -5 0 -5 -5 -1 -11 9 -16 11 -129 1 -129 -5 0 -5
-4 -2 -10 11 -18 14 -50 5 -50 -5 0 -7 -7 -4 -15 3 -8 7 -39 7 -69 2 -60 7
-55 -68 -70 -11 -3 -87 -19 -170 -36 -82 -17 -168 -33 -190 -36 l-40 -5 0 620
0 619 25 -3 c14 -2 59 -11 100 -20z"/>
</g>
</svg>
